<?xml version="1.0" encoding="UTF-8"?>
<svg version="1.1" viewBox="0 0 2048 2048" width="512" height="512" xmlns="http://www.w3.org/2000/svg">
<path transform="translate(1013,149)" d="m0 0h20l15 3 16 7 14 11 9 10 8 13 16 28 14 24 45 78 14 24 28 49 28 48 13 23 14 24 15 26 14 24 16 28 14 24 12 21 30 52 12 21 17 29 12 21 30 52 14 24 15 26 12 21 15 26 10 17 28 49 14 24 10 17 13 23 14 24 45 78 14 24 16 28 15 26 14 24 16 28 11 19 16 28 10 17 30 52 11 19 30 52 12 21 15 26 10 17 14 24 14 25 16 27 16 28 14 24 16 28 30 52 14 24 13 23 19 32 5 13 2 11v22l-4 15-8 16-8 10-10 10-14 8-15 6-14 2h-1846l-18-2-16-6-14-9-13-13-7-11-7-16-3-16 1-19 4-15 11-21 14-24 12-20 6-11 16-28 14-24 16-28 8-13 6-11 9-16 28-48 9-16 8-13 6-11 15-26 13-23 10-17 14-24 15-26 12-21 15-26 10-17 9-16 10-17 24-42 13-22 28-49 28-48 16-28 15-26 14-24 14-25 8-13 14-25 13-22 11-19 14-24 13-23 14-24 16-28 10-17 16-28 14-24 8-13 6-11 13-23 12-21 10-17 12-21 7-11 6-11 16-28 30-52 8-13 6-11 10-17 6-11 14-24 13-23 8-14 13-22 15-26 12-21 6-10 9-16 10-17 16-28 14-24 16-28 11-19 14-24 16-28 9-15 9-12 9-8 14-9 13-5z" fill="#01AA77"/>
<path transform="translate(1021,392)" d="m0 0h3v183l-2 4 2 1v103 3l-2 4 2 3v29l-12 3-10 7-8 9-3 11v15l8 9v2l4 2 9 8 3 2 9 1-1 11-2 4h3v62l-2 1-15 2-16 5h-3v2l-10 6-9 7-11 14-9 15-15 26-13 23-14 24-8 14-5 8-6 11-13 22-6 11-12 20-11 20-8 13-13 23-6 10-6 9-7 14-8 13-6 11-8 14-10 17-14 24-11 20-10 17-11 19-6 10-6 11-13 22-8 14-5 7-8 16-17 29-12 21-6 10-8 20-2 9v17l6 23 2 5-14 14-4-3v-2l-4-2-6-6-5-3-26-26 4 5 28 28 6 7 3 4-1 4-42 42-7 6-4 6-9 7-11 11-7 8-7 7h-2l-2 4h-2v2l-8 7v2l7-6 6-4 28-28 6-5 5 1 8 8 8 7 24 24 5 3 6 5-16-16v-2h-2l-7-8-8-8-7-6v-2l-4-2-9-9 2-5 6-4 41-41h2l1-3 5 1 8 7 8 8 7 6 5 6 6 5 1 4 3 1 5 5 5 3 4 4v-3l-13-13-3-1-4-5v-2h-2v-2l-3-1-1-3-5-3-4-5-2-1v-2h-3v-2l-4-2-5-4v-3h-2v-5l12-12 5 5 8 10 8 8 14 9 15 6 18 3v3l-8 7-9 9-6 8h2v-2h2v-2l8-7 15-15 6-1 48 1 5 5 7 8 9 9-4-5-12-14-2-3h51l-1 5-5 3-9 10-5 6h2v-2l6-2 2-4 8-8 4-7 2-1h195v25l-2 7-10 9-9 9-7 8-16 16-8 7-7 8-8 7-8 8-7 8-2 3h-2v2h-2l-2 4h-2l-2 4-4 5 9-9 6-5 7-8 16-16h2l1-4 5-5h2v-2l8-7 41-41h1v44l-1 69 1 15v15l-2 3h-36l-7 1h-27l-4-1-8 1h-57l-5-3-4 2-9 1h-26l-6-1-5 1h-58l-4-2-12 2h-28l-5-1-5 1h-59l-3-1v-2l-5 2-8 1h-27l-5-1-5 1h-59l-4-2v-2l-5 3-8 1h-27l-5-1-8 1h-53l-7-2-17 2h-21l-8-1-8 1h-31l-25-1-2-1h-6l-2 1-13 1-27-1h-23l-1-5 7-10 7-14 10-17 10-18 8-14 9-14 9-15 14-25 10-18 8-13 6-11 7-12 12-21 22-38 24-42 11-18 6-11 7-13 18-30 8-13 6-11 6-10 10-19 8-13 11-19 4-6 6-12 8-13 6-11 8-13 6-11 6-9 7-14 10-17 15-26 7-11 7-14 9-15 11-18 9-15 5-9 12-21 6-11 9-16 12-21 5-7 6-12 11-19 10-17 8-14 5-7 7-14 10-17 13-23 9-15 10-17 9-15 24-42 13-23 8-14 9-16 9-15 5-8 6-11 6-10 6-11 11-19 13-22 15-27 14-24 24-40 6-11 11-20 10-17 13-23 14-24 15-26 11-19 10-17z" fill="#21CE73"/>
<path transform="translate(1021,392)" d="m0 0h3v173l-2 1-6-4-16-16-6-5v-2l-4-2v-2l-4-2-5-6-8-5-1-4-4-1-3 3-1 4 5-2 8 7 8 8v2l4 2 5 5 1 3h2v2h2v2h2v2h2v2h2v2h2v2h2v2l4 2 5 4 2 4-1 5-25 25-1 2h-2v2h-2v2h-2v2h-2v2h-2l-2 4h-2l-1 3-8 6-5-1-9-10-7-6v-2l-4-2-5-5-6-5h-3l7 9 26 26v4l-8 7h-2l-2 4-16 16-7 8h-2l-2 4-9 8-4 1-1 2-5-5-5-6-2-1v-2l-4-2-4-3-2 1 7 9 12 11-1 4-16 16-1 2h-2l-2 5h-2l-2 7 8-7h2l1-3h2v-2h2v-2l8-7 4-4 4-1 5 3 15 15 2 1v2h2l7 8 15 15 5 3 1 5-4 3h-2l-2 4-6 7-8 7-6 6h-2l-1 3-7 6-6 7-6 5-2 4h-2v2h-2v2l-8 7-7 8h-2l-2 4-4 4h-2l-1 3-7 6-17 17h-5l-6-5-5-5v-2l-4-2v-2l-4-2-4-4v-2l-4-2v-2l-4-2-12-12-5-1 3 4v2l3 1 7 8 20 20v2l4 2 2 4 4 2 3 4v2l-8 7-41 41-4 1-8-7-10-10-8-7-6-5-3-3-2 1 7 8 10 10 6 7 2 1v2h2v2l4 2 2 3-1 4-3 1v2l-7 6-7 8-8 8h-2l-2 4-5 4-7 8-3 3h-2v2l-4 3h-6v6l-1 2h-2l-1 3-6 5-7 8-3 3h-2l-2 4-19 19-3 4h-2l-2 4-4 1-7 9-8 10h-2l-2 4h-2l-2 4-7 8-1 2h2l1-3 8-6 18-18 7-1 10 9 33 33 4 3v2l4 2-6 7-15 15-7 8-18 18-4 3h-6l-22-22-3-2v-2l-4-2-4-4v-2l-8-4-1 1 7 8 7 7 5 6 8 7v2h2l12 12-2 5-8 7-10 10-7 8-17 17-5 4-5 1-6-5-5-6-7-6v-2l-4-2-8-7v-2l-4 1 6 8 12 12v2h2l11 11-1 4-21 21-1 2h-2l-2 4h-2l-2 4-8 8h-2l-2 4-6 5-3 1-3 3-2 5-8 7-15 15-7 8h-2l-2 4-5 6-8 7-4 3h-3l-4 8-3 5 1 2 4-4 5-2 5 2 7 8 5 4v2h2v2h2v2h2l6 7 6 5 6 7 8 7 3 5v2l-5 4h-2l-1 3-5 5h-2l-2 4-19 19-6 7-8 6-4 1-7-6-5-6-7-6v-2h-2v-2l-4-2v-2l-4-2v-2l-4-2-4-3v-2l-4-2-5-2 6 7 11 12 19 19 6 5 2 4-6 5-7 8-37 37-7-1-6-7-8-7v-2l-4-2-6-5h-2l7 9 7 8 3 2v2l4 2 5 6-1 3-8 7-9 10h-2v2h-2l-2 4-18 18-5 4-5 6-3 1-2-1-1 5-17 17-11 12-14 16h3 2v-2l8-7 5-4 7-8 4-4h2l1-3 8-7 3-1 2-4 5-1 14 14 2 1v2l4 2v2h2v2h2v2l4 2v2l4 2v2l4 2v2l4 2v2l4 2 6 7-3 5-44 44-5 3-5-2-7-8-6-5-4-5-7-6v-2l-4-2-14-14-6-5-1-3-4-1-3 4v2h8l9 12 5 5 7 6 7 8 11 11 2 1v2l4 2 1 3h2l-1 5-50 50-4-1-6-8-18-18-2-1v-2l-4-2-2-2-4-1v3h2l4 5v2h2l7 8 10 10 7 5 3 1v6l-4 2-2 4-18 18h-2l-2 4-8 7-13 1-27-1h-23l-1-5 7-10 7-14 10-17 10-18 8-14 9-14 9-15 14-25 10-18 8-13 6-11 7-12 12-21 22-38 24-42 11-18 6-11 7-13 18-30 8-13 6-11 6-10 10-19 8-13 11-19 4-6 6-12 8-13 6-11 8-13 6-11 6-9 7-14 10-17 15-26 7-11 7-14 9-15 11-18 9-15 5-9 12-21 6-11 9-16 12-21 5-7 6-12 11-19 10-17 8-14 5-7 7-14 10-17 13-23 9-15 10-17 9-15 24-42 13-23 8-14 9-16 9-15 5-8 6-11 6-10 6-11 11-19 13-22 15-27 14-24 24-40 6-11 11-20 10-17 13-23 14-24 15-26 11-19 10-17z" fill="#1FD773"/>
<path transform="translate(1417,1195)" d="m0 0 4 1-2 5-10 9-13 12-32 32 5 1 50 50 1 2 11-12 31-31h2l2-4h2l2-4 5-1-1 3h-2v2h-2l-2 4-5 5-10 9-30 30h-2v2l5 2 36 36v2l4 2 8 8 1 3 2 1 2-4 8-8h2v-2h2v-2h2l2-4 29-29 2-3h5v3l-8 7-31 31-4 2-4 6-6 4h-2l-1 5-15 15h-2v2l-8 7-25 25-4 3-1 3-8 7-4 5-6 5h-2v5h-4l-5 7-8 7-19 19-7 8-33 33h-2v2h-2l-2 4h-2v2l-7 5-7 8-2 3h-2l-2 4-10 10h-2v2l-8 7-1 2h-2l-2 4-12 11-7 8-20 20h-2l-2 4h-2l-2 4h-2v2l-8 7-5 5h-2l-2 4-9 8-1 2h-2l-1 4-30 30-3-2 6-7h2v-2h2l2-4 20-20h2l-24-24v-2l-4-2-6-7-5-5-5-4-5-6-5-4-4 2-34 34h-2l-2 4h-2l-2 4-6 5-5 5-9 10-9 9-5 6-5 5-4 3-2-4 10-9 21-21h2l2-5 8-8h2l2-4 8-7 32-32h2l-5-5-2-4-4-2-24-24-14-15-5-4v-2l-24 24-5 4-9 11-9 9h-2l-2 4-3 3h-2l2 4 8 7 10 9 6 5 7 8 6 6v2l3 1 7 8 4 5-4-1-7-8-35-35-9-7-7 6-42 42h-2v2l-5 5h-2l-1 4-8 7-15 15-6 7-8 7-5 4 2-4 6-7 4-4h2v-2h2l2-4 15-16 6-6h2l2-4 11-11 8-7 15-15 7-8 14-14 1-5 1-25-26 1-52-1-3-2 10-13h2l2-4 10-10h3l2-4 7-7 8-7 9-8 1-2h2l2-4 9-10 8-7 3-4h2l1-3 11-11h2l2-4 7-6 5-6 26-26h2v-3l3-1 7-8 4-5-6-1v-1l14-1-2 4-5 5-1 2h-2v2h-2v2l-4 3h-2l4 5 8 7 42 42 3-1 3-5 11-9 12-12 7-8 6-7 5-5 7-6 4-5 8-7 12-12 4-5 7-6 15-15 7-6h2l-4-5-8-7-11-12-32-32-2-1 1-3 13-13 7-6 5-6 7-6 5-6 8-7 8-8h3v-3h2l1-4 20-20h2l2-4 20-20 6-5h3v3l-8 7-14 14-8 7 2 7-5-3h-2l-2 4-4 2-2 4-8 7h-2v3l2 1v2l4 2 46 46-1 2-4-2-7-8-12-12v-2l-4-2-4-4v-2l-4-2-16-16-4 2-8 7-38 38-6 4 2 4 12 12 6 5 7 8 27 27 8-9h2v-2l8-7 14-14 7-8 13-13h2l2-4 6-6 2-3 7-6 32-32 7-6v-2l5-3 7-8 41-41 2-1z" fill="#00A171"/>
<path transform="translate(1023,1107)" d="m0 0 4 4 6 11 5 9 10 16 10 18 15 26 13 22 10 17 15 26 8 14 5 9 11 18 16 28 9 16-1 3-8 7-8 9-3 3-3 1v3l-8 7-17 16-11 11-5 2h-28l-7-4h-1l1 3h-70l6-7 13-12 2-3-4 2-10 9-9 9-5 3h-27l-8-3-8-8v-2l-4-2-5-4 1 1 7 8 8 7v2l-2 1-70-1 5-5 8-6 3-4-5 2-11 11-3 2-5 1h-15l1-4 14-25 14-24 6-9 7-14 9-15 15-26 9-15 13-23 12-21 17-29 9-15 15-27 14-24 10-17z" fill="#57FC9F"/>
<path transform="translate(1194,1309)" d="m0 0 7 6 35 35 7 8 7 6v2l-11 9-10 10h-2l-2 4h-2l-2 4h-2l-2 4-4 4h-2l-2 4-8 8h-2l-2 4h-2l-1 3h-2l-1 3-7 6-3 4h-2l-2 4-9 9-7 8-8 8-8 7h-2l-2 5-4 2-48-48-6-5v-2l4-3h2v-2h2v-2h2l2-5 5-4 1-2-8 2v3l-9 9-2 3h-3v3l-8 7-16 16-2 3h-2l-2 4h-2l-2 4h-2l-2 4-8 7-7 8-6 5-12 12-3 4h-2l-2 4-2 3h-2l-2 4-8 7-5 5-10 9-2 3h-3l-1 3-8 7-3 4h-2l-2 4-7 9 2 2-61 1h-57l-1-2 7-1 7-9h2l2-5 5-4 4-5 6-6 8-7 13-12 30-30 1-2h2l2-4 8-7 44-44h2v2l5 2 8 8 4 3v2l4 2v2l3 1 7 8 14 14v2l3 1v2h2l2 2v-3l-4-2-8-8-7-8-22-22-6-5-4-3 1-4 3-3h2l2-4 8-8v-3-2l8-7 10-10 5-4 3 1-7 8-14 13h68l-2-4 10 5h28l6-3 19-19 8-7 6-6 5 1 5 4-5-6 2-4 15-14 3-4h3v-2h2l1-4 8-7 19-19z" fill="#01A976"/>
<path transform="translate(1251,1368)" d="m0 0 4 2 8 7 43 43v2l-8 7-41 41h-2l-3 6-4-2-43-43-8-6 18 18 7 6 5 6 17 17 3 2v2l3 1-33 33-1 2h-2v2l-16 14-5 7-5 3-3 3h-2l-2 4h-2l-2 4-6 7-4 1v3l-5 3-11 11-6 7h-2l-2 5-4 2-20-20-8-7-10-11-7-8-8-7v-3h3l1-3 8-7 38-38 1-2h2v-2l4 2 17 16 20 20 4 5 8 7-4-5-13-13v-2h-2v-2h-2l-4-5-8-7-13-13-4-3 1-4 8-7 40-40 9-11 8-7 10-9 10-10 5-6 8-7 10-10z" fill="#01AA76"/>
<path transform="translate(855,975)" d="m0 0 5 1 5 5v2l4 2 19 19 8 6-2 5-6 11-13 22-6 11-12 20-11 20-8 13-13 23-6 10-6 9-7 14-8 13-6 11-8 14-10 17-14 24-11 20-10 17-6 9-5-2-2-5h-2l-7-8-7-7-7-6v-2l-4-2-8-7 2-5 47-47 5-1 3 1 5 7 2 1v2h2v2l4 2 6 4-1-4-3-4v-2l-4-2-4-4-7-5 1-4 4-6h2v-2l3-3h2l1-3 8-7 7-7 5-6h2l2-4 6-5 2-3h2v-2l5-3 5 2v-3l2-6 7-8 6-5 7-8 3-5h2l1-5-5 1-5 6h-2v3l-7 6-5 7-11 6-9-10-2-1v-2h-2l-6-7-14-14-8-7-9-8 1-5 4-5h2l2-4 5-4 12-12 1-2h2v-2h2l2-4h2l2-4 8-7 6-5 4 1 16 16 7 6 17 17 4 2-1-5-29-29-2-1v-2l-4-2-6-5-1-4 4-5h2l2-4 7-7h2v-2h2v-2l8-7 2-3h2l2-4h2v-2h2v-2h2v-2l8-7z" fill="#1FD773"/>
<path transform="translate(645,1519)" d="m0 0 5 5 8 10 8 8 14 9 15 6 18 3v3l-8 7-9 9-8 10h-2v2l-8 7-39 39-5 4-7 8-31 31-1 2-5 3h-2l-2 4h-2l-2 4-6 5-4 1-14-14v-2l-3-1-5-6-8-7v-2l-4-2-11-11-5-3-2-3v-3l5-4 7-8 6-4 28-28 6-5 5 1 8 8 8 7 24 24 5 3 6 5-16-16v-2h-2l-7-8-8-8-7-6v-2l-4-2-9-9 2-5 6-4 41-41h2l1-3 5 1 8 7 8 8 7 6 5 6 6 5 1 4 3 1 5 5 5 3 4 4v-3l-13-13-3-1-4-5v-2h-2v-2l-3-1-1-3-5-3-4-5-2-1v-2h-3v-2l-4-2-5-4v-3h-2v-5z" fill="#1FD773"/>
<path transform="translate(516,1652)" d="m0 0 5 2 5 4v2h2v2l4 2 7 6 7 8 25 25-5 6h-2l-2 4h-2l-2 4h-2l-2 4h-2l-2 4h-2l-2 4-6 7-4 4-8 1h-27l-5-1-8 1h-53l-7-2-17 2h-21l-8-1-8 1h-31l-25-1-2-2 10-9 9-9 6-5 3-3 2-1h6l15 14 4 2 3 3-3-7-10-10-8-7 1-4 7-8 39-39 7-1 10 9 15 14 7 7v2h2l7 8 9 7v3l-6 7-6 5-7 8h-2v2l-4 4h-2l-2 5 4-1 9-8h2v-2h2l2-4 7-7 7-4 5 2 5 6 8 6v2l4 2v2h2l-1-7-4-1-5-6v-2l-5-2-3-3v-2h-2l1-4 3-4h2l2-4 4-4h2l2-4 15-15 3-5 4-4 5-3z" fill="#1FD773"/>
<path transform="translate(1081,1424)" d="m0 0 4 2 17 16 24 24v2l4 2 7 7v2l-11 9-7 8-22 22-8 7h-2l-2 4-2 3h-2v2l-6 4-12 12-6 7h-2l-2 4-8 7h-2l-2 4-8 8-6 9h-2l-1 3-1-1 1-30-26 1-52-1-3-2 10-13h2l2-4 10-10 7-3 3-1v-2l11-9 17-17h2v-2h2v-2h2v-2h2l2-4 5-5h2l2-4h4l49 49-2-4-12-11-7-8-11-11-2-1v-2l-4-2-5-5-1-3-4-2-2-2v-3l8-6z" fill="#00A976"/>
<path transform="translate(1194,1309)" d="m0 0 7 6 35 35 7 8 7 6v2l-11 9-10 10h-2l-2 4h-2l-2 4h-2l-2 4-4 4h-2l-2 4-8 8h-2l-2 4h-2l-1 3h-2l-1 3-7 6-3 4h-2l-2 4-9 9-7 8-8 8-8 7h-2l-2 5-4 2-48-48-6-5v-2l4-3h2v-2h2v-2h2l2-5 5-4 1-2-3 1h-11v-1l12-2 8-7 14-14 8-7 6-6 5 1 5 4-5-6 2-4 15-14 3-4h3v-2h2l1-4 8-7 19-19z" fill="#01A976"/>
<path transform="translate(1308,1423)" d="m0 0 7 6 38 38 7 8 2 4-8 7-12 12-1 2h-2v2h-2l-2 4-12 12h-2v2l-8 7-4 5-8 7-20 20-12 11-7 8-8 9h-2v3h-2l-1-3-8-7-23-23-7-8-12-12-3-2v-3l6-4 14-14 7-6 5-6 6-5 7-8 64-64z" fill="#01AA76"/>
<path transform="translate(1420,1311)" d="m0 0h2l7 8 10 9 18 18 5 6 4 3v2l4 2 2 2v3l3 1-54 54-1 3-8 6-11 10-7 8-30 30h-2l-7-8-14-14-7-8-8-7-5-5v-2l-4-2-8-7 1-4 8-7 33-33 6-5h2l1-5h2l2-4 10-8 7-8 34-34z" fill="#01AA76"/>
<path transform="translate(573,1483)" d="m0 0 5 2 5 5 10 9 22 22 2 3 5 2 5 7-1 4-42 42-7 6-4 6-9 7-11 11-7 8-7 7h-2l-2 4h-2v2l-8 7-5 3-5 1-8-7-4-4v-2l-4-2-5-5-4-5-7-6-5-5v-2l-4-2-9-8 1-4 5-6h2v-2l8-7 34-34 5 1 2 1v2h2v2l4 2 13 12 4 4 4 2 20 20-7-8-6-6v-2h-2l-7-8-3-3-7-8-8-8-5-3-3-3v-4h2v-2h2l2-4 9-10 32-32z" fill="#1FD773"/>
<path transform="translate(968,749)" d="m0 0 5 2 3 2v2l4 2 5 4 5 5 9 10v2l4 2 9 8 3 2 9 1-1 11-2 4h3v62l-2 1-15 2-16 5h-3l-6-9-10-9 1-4 10-9 5-5 6-7 7-6 7-8 7-7h2v-3l-9 8-7 8-28 28-7-1-7-8-33-33-2-1v-2l-5-2-3-3v-3l8-7 5-5 2-3h2l1-3 6-5 7-8 4-4h2l2-4 8-8h2v-2z" fill="#1FD773"/>
<path transform="translate(629,1652)" d="m0 0 5 2 16 15 30 30 5 3-2 1v3l-6 5h-2v2h-2l-2 4h-2l-2 4h-2l-2 4-5 5-6 7-3 3-8 1h-27l-5-1-5 1h-59l-4-2 2-1v-2h2v-2l8-7 19-19 3-1 5 4 7 8 5 5 4 3 2-1-3-5-8-7v-2l-5-2-5-5 2-4 46-46z" fill="#1FD773"/>
<path transform="translate(720,1560)" d="m0 0 51 1 5 5 7 8 9 9-4-5-12-14-2-3h51l-1 5-5 3-18 20h-2v2l-8 7-44 44-2 3h-4l-7-8-43-43-3-1 1-4 1-2h2v-2h2v-2l8-7 15-15z" fill="#1FD773"/>
<path transform="translate(1194,1535)" d="m0 0 3 2v2l4 2 10 10 7 8 5 5 15 14 11 11-1 4-15 14-15 15-7 8-13 12-3 3h-2l-4-5-4-3v-2l-4-2-8-8v-2l-3-1-7-8-14-14-9-7 1-4 14-14h2v-2h2l2-4 9-10 4-1 2-4 15-15z" fill="#01A976"/>
<path transform="translate(685,1592)" d="m0 0 4 2 9 8v2l4 2 16 16v2l3 1 7 8 7 7 5 4 1 5-10 9-13 13-7 8-10 10-5 3-6 6h-6l-16-16v-2l-4-2-5-6-3-2v-2l-4-2-10-10-5-3-4-3-1-5 4-4h2l1-3 8-7 37-37z" fill="#1FD773"/>
<path transform="translate(799,1592)" d="m0 0h2l30 30 5 6 5 5 7 8 3 1 2 4v4l-4 3h-2v2h-2l-2 4-13 13-7 8-6 4-14 14-6 1-1-4-4-2-35-35-7-4-6-5 2-4 6-6h2l1-3 8-7 10-10 5-6 7-6 7-8 6-5z" fill="#1FD773"/>
<path transform="translate(572,1371)" d="m0 0 6 1 1 3 4 2 12 11 17 17 7 6v2l4 2 5 5 1 2-6 5-7 6-1 2h-2v2h-2v2h-2l-1 4-21 21-11 8-4 1-33-33v-2l-4-2-4-4v-2l-4-2-6-5v-3l5-4 7-8h2v-2l8-7 27-27z" fill="#1FD773"/>
<path transform="translate(911,805)" d="m0 0 5 2 20 20 7 6 5 6 8 7 8 8 2 5h-2v2l-8 7-40 40-5 2-12-13-16-16v-2l-4-2-4-4v-2l-4-2-10-9v-2h-2v-2l6-5h2l2-4z" fill="#1FD773"/>
<path transform="translate(966,638)" d="m0 0 6 1 30 28 17 17 2 4-1 3-8 7-5 6-5 5-3 5-7 6-5 6-5 3-8 8h-2l-2 4-4-1-7-8v-2l-4-2-4-4v-2l-4-2-4-4v-2l-4-2v-2l-4-2v-2l-4-2-4-4v-2l-4-2-5-3-2-5 4-6 8-7 30-30z" fill="#1FD773"/>
<path transform="translate(516,1427)" d="m0 0 6 2 14 14 7 6 5 5v2h2l7 8 9 7 4 6-2 5-43 43-8 4-4-2v-2l-4-2-6-7-13-13-6-5-6-7-11-9-2-5 44-44z" fill="#1FD773"/>
<path transform="translate(460,1483)" d="m0 0 5 2 8 8 2 1v2l4 2 20 20v2l4 2 10 10-1 4-5 5-3 5-15 15-8 7-15 15-4 2-5-1-5-5-6-7-6-5-7-8-15-15-9-7 1-5 45-45h2l1-3z" fill="#1FD773"/>
<path transform="translate(855,863)" d="m0 0 4 1 8 7v2h2v2h2v2h2v2h2v2l4 2v2l4 2v2l4 2v2l4 2 11 11 5 4 3 5-8 7-42 42-5 1-42-42-8-7-1-4 7-6 7-8 29-29z" fill="#1FD873"/>
<path transform="translate(628,1315)" d="m0 0 7 1 4 5 8 7 20 20 2 1v2h2l4 4v2h2v2l4 2v4 2h-3l-2 4-5 6h-2l-2 4-6 7h-2l-2 4-11 12-11 10-5 5-12-13-20-20v-2l-3-1-5-6-10-8-3-4 6-7 4-4h2v-2l8-7 29-29z" fill="#1FD873"/>
<path transform="translate(459,1597)" d="m0 0 5 1 10 9 15 14 7 8 7 6 5 5 4 5 2 2-11 12-15 14-7 8h-2l-2 4h-2v2l-8 7-5 6-4-1-9-11-28-28-11-9-2-5 6-5 41-41z" fill="#1FD773"/>
<path transform="translate(797,920)" d="m0 0 7 1 25 25 6 5 6 7 8 7 4 6-8 7-9 10-30 30-4 3h-5l-7-8-7-6-7-8-18-18-2-1v-2l-5-2-2-2v-6h2l2-4z" fill="#1FD873"/>
<path transform="translate(741,977)" d="m0 0h5l16 15 8 7 5 6 7 6 5 6 7 6v2h2l-2 4-14 14-1 2h-2v2h-2l-2 4-23 23-4 3h-6l-5-6-21-21-3-2v-2l-4-2v-2l-4-2v-2l-4-2v-2l-5-2-2-2v-5l4-5 4-4h2v-2l8-7 20-20h2v-2h2v-2h2v-2z" fill="#1FD873"/>
<path transform="translate(743,1089)" d="m0 0 6 3 20 20 6 5 7 8 9 8v2h3l1 5-5 5-7 8h-2l-2 4h-2l-2 4-16 16-7 8-10 7-4-5-6-5-7-8-23-23-9-7-2-4 6-8h2l2-4h2l1-3 8-7 5-5 8-9h2l1-3 8-7 4-4z" fill="#1FD873"/>
<path transform="translate(573,1259)" d="m0 0 6 2 9 8v2l4 2 27 27 7 8v3l-7 5-7 8-31 31h-2v2l-4 2-4-1-5-5-8-7v-2l-4-2-4-5-3-2v-2h-2v-2h-2v-2l-4-2-4-4v-2h-2l-10-10 1-6 6-6h2l2-4 12-11 17-17h2v-2l6-5z" fill="#1FD873"/>
<path transform="translate(683,1147)" d="m0 0h7l8 7 9 8 4 4v2l4 2v2l4 2 5 6 8 7 7 6-1 5-8 7-7 8-29 29-5 4h-5v-2l-4-2-9-9v-2l-4-2-4-4v-2l-4-2v-2l-4-2v-2l-4-2v-2l-4-2v-2l-4-2-7-6 1-6 2-3h2v-2l8-7z" fill="#1FD873"/>
<path transform="translate(628,1203)" d="m0 0 7 1 10 10 2 1v2h2v2h2v2l4 2v2l4 2 2 4h2v2l4 2 6 7 8 7 1 5-10 9-7 8-27 27-5 4-4 1-2-1v-2l-4-2-17-17v-2l-3-1-7-8-5-4-5-5-5-4-2-5 9-10 38-38z" fill="#1FD873"/>
<path transform="translate(742,1652)" d="m0 0 7 4 6 5 5 6 8 7 8 8v2h2l7 8 6 5v2l5 2v4l-4 4h-2v2l-8 7-14 14-6 8-8 1h-28l-2-1v-2h-2l-6-8-2-1v-3l-3-1-7-8-10-9-4-4 6-7 14-15 20-20 6-7 5-2z" fill="#1FD773"/>
<path transform="translate(804,1585)" d="m0 0v3l-3 4h3l7 8 5 4 5 6 13 13 4 2 7 8 11 9 1 1 4-4h2l1-3 8-7 28-28 7-8 5-2-2 5-8 7-15 15-3 4h-2l-2 4h-2l-1 3-8 7-13 13-7 8-5 5h-2l-2 4-25 25-6 7-5 4 2 4 9 8v2l4 2 6 7 2 1v3l3 1 5 7 2 2-9 2h-58l-6-3 2-4 7-8 15-15h2v-2l6-5-1-3-4-2-4-5-5-4v-2l-4-2v-2h-2l-7-8-7-7-7-6v-2l-4-2-8-6-8 4-7 8h-2l-2 4-22 22-7 8-4 5 1 3 4 2 10 9 6 7 2 1v3l4 2 4 5v2l2 1-8 2h-59l-3-1v-2l-3-1 9-11 8-7 5-6h2v-2l6-5h2l1-4-6-4-37-37-10-8-4 2-8 7-24 24-1-2 2-5 36-36 5-6 8-7 39-39h2v-2l4-2-2 6 4 1 38 38v2l4 2 7 7v2l4-1 7-8 45-45h2v-2zm-119 7-7 8-37 37-3 2v2l-4 2-2 4 1 3 6 5 5 3 10 10h2l1 3 6 5 3 4h2l2 4 14 14h6l8-8 5-3 14-14 7-8 14-14 3-2-1-5-13-12-7-8h-2l-2-4-16-16h-2l-2-4-8-7zm114 0-5 5-6 7-6 5-6 7-19 19-3 2v2l-4 2-6 6v2l10 8 5 3 35 35h2l1 4 6-1 16-16 5-3 15-16 6-6v-2h2v-2l6-3-1-6-1-2-3-1-14-16-33-33z" fill="#24C374"/>
<path transform="translate(687,1258)" d="m0 0 4 2 5 5 10 9 23 23 1 2-8 14-6 11-13 22-8 14-6 8-2-3-5-6-3-5-5-5v-2l-4-2-24-24-11-10 1-5 47-47z" fill="#1FD773"/>
<path transform="translate(967,861)" d="m0 0 7 3 14 12v2l-10 6-9 7-11 14-9 15-15 26-13 23-14 24-8 14h-4l-3-2-3-6-6-6v-2l-4-2-10-10-8-6-1-4 44-44 8-7 5 3 7 7 2 1v2l4 2 2 2 1-3-4-6-8-7-4-4 2-4 12-13 34-34z" fill="#1FD773"/>
<path transform="translate(682,1372)" d="m0 0h4l-1 5-8 15-8 13-13 23-9 15-8 20-2 9v17l6 23 2 5-14 14-4-3v-2l-4-2-6-6-5-3-4-6-23-23-6-3-2-3v-3l8-7 11-11 1-3 5-3 27-27 7 1 4 5 4 2-6-8-5-3 1-3 8-7 5-5 7-6h2l1-3 7-6 8-10 6-9z" fill="#1FD773"/>
<path transform="translate(890,722)" d="m0 0 13 1 10 4 9 8 4 7 3 7 1 11-2 9-4 6-5 6-11 8-5 2h-9l-10-3-9-6-5-5-6-9-2-6-1-11 4-11 9-10 3-3h2v-2z" fill="#01AA77"/>
<path transform="translate(1023,1594)" d="m0 0h1v44l-1 75-5 2-3 3h-2v2h-2v2h-2l-2 4-7 6-3 3-4 1 1-4 3-1 2-4 5-6 10-10h2v-3l4-3-1-4-2-4-4-2v-2h-2v-2h-2v-2h-2l-7-8-13-13-5-6-7-5-4-4-4 1-11 10-2-1 10-10h2l1-4 5-5h2v-2l8-7z" fill="#1FD773"/>
<path transform="translate(798,1364)" d="m0 0h3l-2 5-8 7-42 42h-2v2h-2l3 5 5 5 10 9 14 14 6 7 7 6 5 5 3 4 4-1 7-8 4-2 2-4h2l2-4h2l2-4h2l2-4h2l2-4 12-12h2l2-4 6-5 3 1-11 11h-2l-1 3-88 88-7 6h-2v3l6 4 12 12 1 3-4-2-10-10-6-5-4 2-9 10-4 5h-2l-2 4-3 3-5 3-19 19h-2v2h-2v2h-2l2-4 11-12 8-8 8-7 7-7 8-10 4-4h3l-2-4-8-7-8-8-7-8-23-23-4-3v-2l-5 3-27 27-8 7-1 2-5 3-9 9-1 5h2v3l4 2 5 4v2h3v2l3 1 5 6 4 2 1 3 2 1v2h2l4 5v2l4 1 14 14-1 3-5-3-1-2-5-3-7-6-1-4-4-2v-2l-3-1-5-6-4-3v-2l-4-2-12-12-5-2h-2l-46 46-3 1-2 5 10 10 7 6v2l4 2 13 13v2h2l7 8 7 7 3 2-1 2-8-7-5-3-28-28-8-7-4-3-4 1-13 12-22 22-5 3-6 5-2-2 8-8h2v-2l8-7 10-10 7-8 9-9 4-3h2l2-4 7-8 8-7 36-36-1-4-4-6-37-37h3l27 27 5 3 8 7 4 4 14-14 6-7 8-7 4-2 2-4 19-19-18-18-6-7-6-5 1-2 10 8 7 8 14 14 13-13h2v-2l8-7 11-11 5-6h2l2-4 8-7 4-4 1-2 9-9h2v-2l7-6h2v-2h2v-2h2v-2h2l2-4 18-18h2l2-4 5-4zm-54 59-10 9-40 40v2l-5 2 1 4 4 2 1 3h2l2 4 4 4h2l2 4 7 6 1 2h2l2 4 18 18 5 6 7-6 10-10 6-5 6-7 25-25 2-1-1-3-50-50z" fill="#009368"/>
<path transform="translate(1160,1344)" d="m0 0 5 5 14 24 10 18 5 8v4l-14-1-6-3-9-8-5-5v-2l-2 1 14 14 3 2v2h-72l2-4 7-7 8-7 15-15 2-3 4 2 4 3-5-6 2-4 15-14z" fill="#57FC9F"/>
<path transform="translate(1022,582)" d="m0 0h2v95l-2 2-5-3-32-32-2-1v-2l-4-2-5-5v-4l7-8 28-28 2-4 6-4z" fill="#1FD773"/>
<path transform="translate(1139,801)" d="m0 0 7 6 46 46v2l3 1v2h2v2l4 2 47 47v2h2l42 42v2l4 2 7 6 1 3-5-2-47-47-4 2-10 10-8 7-29 29-4 3h-2l3 5 10 9 35 35 6 5 2 2 24-24 7-8 17-16 5-5 3 1-6 7-11 11h-2l-2 4-7 6-1 2h-2l-2 4h-2v2h-2v2l-8 7-4 5-5 4-1 3-4 2-6 7-8 7-7 7-5 6-8 7-4 5-4 2v2l-3 3-5 3-5 6-7 8-20 20-3 4h-2l-2 4h-2v2l-16 14v3l8 7 7 6 7 8 30 30-1 2-10-9-41-41-2-1v-2l-21 21h-2l-2 4h-2l-2 4-4 4h-2l-2 4-7 8-4 3-3-1 4-6h2v-2l8-7 11-11 7-8 5-4 10-10h2v-2l14-14h2l2-4 34-34 1-4-5-5-10-13-10-10-16-14-5-6-5-4v-2l5 2 23 23 9 7 5 5 9 12 1 2 5 1v-2l3-3h2l2-4 8-7 10-10 7-8 12-11 8-8-2-4-12-11-21-21v-2l-4-2v-2l-4-2-10-10-4 2-5 6-8 7-17 17-6 2 4-6 8-7 23-23h3l-5-6-7-6v-2l-4-2-20-20v-2l-4-2v-2l-4-2-11-11v-3l-2-1 49-49 7-5 2 1v-2l-3-1v-2l-4-2-37-37v-2l-4-2-7-7zm54 59-8 9-8 7-20 20-5 4v2h-2l-5 5-6 5 2 5 8 7 10 10h2l2 4h2l2 4 26 26 5-5 13-12 35-35 4-2-54-54z" fill="#009368"/>
<path transform="translate(689,1587)" d="m0 0v3l-2 3-2-1-2 4-42 42-8 7v5l4 2 8 6 9 9 8 7 4 5 18 18h6l8-8 5-3 13-13 7-8 15-15 3-1-1 4h-2v2l-10 10h-2l-2 4-22 22-7 8-4 5 1 3 4 2 10 9 6 7 2 1v3l4 2 4 5v2l2 1-8 2h-59l-3-1v-2l-3-1 9-11 8-7 5-6h2v-2l6-5h2l1-4-6-4-37-37-10-8-4 2-8 7-24 24-1-2 2-5 36-36 5-6 8-7 39-39h2v-2z" fill="#23C174"/>
<path transform="translate(1137,1367)" d="m0 0 4 2 13 12 6 7 8 7 7 6v2h-72l2-4 7-7 8-7 15-15z" fill="#58FDA0"/>
<path transform="translate(686,1708)" d="m0 0 5 1 4 5v2h2v2l4 2 7 6v2l5 1 5 6v2l3 1v2l-5 1h-59l-3-1 2-4 10-9 14-14h2l2-4z" fill="#1FD873"/>
<path transform="translate(800,1708)" d="m0 0 7 6 5 5 9 8 6 4 6 7v2l-5 1h-58l-3-3 16-15 13-13z" fill="#1FD873"/>
<path transform="translate(1472,1255)" d="m0 0h3l-1 3h-2v2h-2l-2 4-5 5-10 9-30 30h-2v2l5 2 36 36v2l4 2 8 8 1 3 2 1 2-4 8-8h2v-2h2v-2h2l2-4 29-29 2-3h5v3l-8 7-31 31-4 2-4 6-6 4h-2l-1 5-15 15h-2v2l-8 7-25 25-5 3 1-4 14-14h2l2-4 35-35-2-1-3-5-8-7-7-8-18-18-4-3v-2l-4-2-6-6v-2l-10 8-36 36-5 6-8 6-1 2-2-1 7-9 4-5 8-7 31-31h2v-2l5-5-1-2 5-1 9-10 32-32h2l2-4h2l2-4z" fill="#009368"/>
<path transform="translate(584,1488)" d="m0 0 4 2 26 26 5 3 8 7 4 4h2v6h2v3l4 2 5 4v2h3v2l3 1 5 6 4 2 1 3 2 1v2h2l4 5v2l4 1 14 14-1 3-5-3-1-2-5-3-7-6-1-4-4-2v-2l-3-1-5-6-4-3v-2l-4-2-12-12-5-2h-2l-46 46-3 1-2 5 10 10 7 6v2l4 2 13 13v2h2l7 8 7 7 3 2-1 2-8-7-5-3-28-28-8-7-4-3-4 1-13 12-22 22-5 3-6 5-2-2 8-8h2v-2l8-7 10-10 7-8 9-9 4-3h2l2-4 7-8 8-7 36-36-1-4-4-6-37-37z" fill="#22C074"/>
<path transform="translate(1023,694)" d="m0 0h1v28l-12 3-10 7-8 9-3 11-1 9-6-4-7-7-4-3 2-4 3-4h2l2-4 9-9v-4l5-1 12-12 1-2h2v-2h2l2-4 4-3h2v-2h2z" fill="#1FD773"/>
<path transform="translate(520,1642)" d="m0 0 1 2 1 5 3 3 8 7 12 12 6 5 5 6 16 16 5-2 6-5 5-6 4-3h3l-2 6-15 15 2 4 7 5 11 11v3l3 1-5 1-5-4v-2l-4-2-12-12-5 3-23 23h-2v2h-2v2l-4-2 6-7 5-5 6-7 7-6 5-5 2-4-8-7-23-23v-2l-4-2-7-6v-2h-2v-2l-4-2-4-3-4 2-8 7-5 3-12 12v-3l3-4h2v-2h2v-2h2l1-4 12-12 8-7z" fill="#23C274"/>
<path transform="translate(1587,1478)" d="m0 0 1 3-2 4-8 7-17 16-24 24h-2v2h-2l-2 5-15 15h-2v2l-8 7-25 25h-2v2h-2l-2 5-19 19-8 7-28 28-3 5-8 7-27 27h-3l-2-1 37-37h2v-2l54-54h2v-2l54-54h2v-2l57-57z" fill="#009368"/>
<path transform="translate(858,1646)" d="m0 0 5 5 3 4v2l6 2 33 33v2h2l3 5 5-2 12-12h2v-2h2v-2h2v-2h2v-2h2v-2h2v-2l2 1-1 2h-2v2h-2l-2 4h-2l-2 4-4 5 8-8v3l-9 9h-2l-1 3-5 4v4h2l4 5 8 7 1 3 4 2 2 2v4h-3l-7-8-11-10-3-3-7 5h-2v2h-2l-2 4-10 10-8 7-5 2-2-1 6-8 8-7 19-19-19-19v-2l-3-1-5-6-8-7v-2l-4-2-10-9-6-3 3-5z" fill="#23C274"/>
<path transform="translate(1409,1094)" d="m0 0 2 1-30 30h-2l-3 4h-2l-2 4-5 5h-2l2 4 8 7 12 12 6 5 7 8 15 15 3 2v2h-3v-2l-4-2-26-26v-2l-4-2v-2l-4-2v-2l-4-2-9-8-5 4-19 19h-2l-2 4-7 7-8 7-10 10h-2l2 4 8 7 27 27v2l4 2v2l4 2 9 8-1 2-4-2-5-4-7-8-19-19-7-6v-2l-4-2v-2l-4-2-7-6 1-2h2l2-4 7-8 8-7 9-10 23-23 4-1 2-4 12-13 9-9h2l2-4h2v-2h2v-2h2v-2h2v-2h2v-2h2v-2h2v-2h2v-2z" fill="#009368"/>
<path transform="translate(979,1404)" d="m0 0h9l-6 7-5 6-5 4 1 4 6 4v2l4 2 24 24v2l3 1 7 8 5 4 1 4-3-1v-2h-2l-7-8-17-17-5-6-8-7-9-8-2-1v-2l-8 7-48 48h-2l-2 4-37 37-8 7-6 5-2-1 6-7 8-7 5-5h2l1-3 5-5h2l2-4 18-18 5-6h3l2-4 28-28 3-4h2l2-4h2l2-4h2l2-4 16-16h2l2-4v-3z" fill="#009368"/>
<path transform="translate(1539,1412)" d="m0 0 3 3-5 4-5 2-1 5-19 19h-2l-2 4h-2l-2 4-8 7-18 18h-2l-1 4-19 19-8 7-20 20-8 6-3-2 1-2 3 2 2-4h2l2-4 41-41 5-4-2-5-44-44-5-4v-2l4 1 36 36v2l4 2 7 7 2 3 4-2 6-7 8-7 13-13 7-8 7-6 7-8 3-3 1-2 4-2z" fill="#009368"/>
<path transform="translate(1078,858)" d="m0 0h2l-1 4-4 5h-2l-2 4-8 7h-2l-2 4-17 17-1 2h-2l-2 4-8 7h-2l7 8 13 13 7 6 4 4v2l4 2 7 8 8 8v2l-4-2-4-4v-2l-3-1-5-6-7-6-7-8-7-7-7-6v-2l-4-2-2-4-4 4-1 2h-2v2l-5 5h-2v2h-2v2h-2v2h-2v2l-7 6-1 2h-2v2h-2v2h-2v2h-2v2l-8 7-7 6-3-1 6-7 42-42h2l1-3h2l2-4 18-18 1-2h2l2-4 11-10 7-8 7-7z" fill="#009368"/>
<path transform="translate(1642,1535)" d="m0 0 3 1-3 5-16 16-8 7-22 22h-2v2l-5 5-8 9-8 7-32 32-7 6-6 8-3 3h-2l-2 4-8 7-11 11-1 2h-2v2h-2l-1 2-1-4 32-32h2l1-3h2l1-4h2l2-4 17-16 29-29h2l1-3 2-2 1-2h2l2-4 4-4h2v-2l8-7 7-7 5-6h2l2-4 7-6 1-2h2v-2l7-5z" fill="#009368"/>
<path transform="translate(1417,1195)" d="m0 0 4 1-2 5-10 9-13 12-32 32 5 1 50 50-2 1-8-7-26-26-7-6v-2l-4-2-7-7-4 2-8 8-8 7-19 19-6 4-3 7h-6l3-6 4-2 36-36 7-6v-2l5-3 7-8 41-41 2-1z" fill="#009368"/>
<path transform="translate(1418,1534)" d="m0 0h2l-1 4-30 30-8 7-10 10-4 5-39 39h-2l-1 3-8 7-8 8-1 2h-2l-1 4-8 7-23 23h-2l-1 2-1-3 22-22 1-2h2v-2l8-7 3-3h2l2-4 28-28 1-2h2v-2l8-7 14-14 7-8 13-12 15-16 18-18z" fill="#009368"/>
<path transform="translate(970,1647)" d="m0 0 3 1v2l4 2 15 14 17 17v2l4 2 8 8 2-1v19l-5 2-3 3h-2v2h-2v2h-2l-2 4-7 6-3 3-4 1 1-4 3-1 2-4 5-6 10-10h2v-3l4-3-1-4-2-4-4-2v-2h-2v-2h-2v-2h-2l-7-8-13-13-5-6-7-5-4-4-4 1-11 10-2-1 10-10h2l1-4z" fill="#24C375"/>
<path transform="translate(939,1561)" d="m0 0 3 1-10 13-7 6-10 10h2l1 3 8 8 5 3v2l4 2 8 8v2l4 2 7 8 7 7 7 6v2l-5 1-5-6-8-7-4-4v-2h-2l-7-8-16-16-6-7-4-3-14-15-1-3-4-2-2-5 4 2 3 3v2h2v2l4 2v2l3 1 4 4 4-1 5-2 11-12 6-7z" fill="#20BE73"/>
<path transform="translate(910,1591)" d="m0 0 2 1-2 4-8 7-15 15-3 4h-2l-2 4h-2l-1 3-8 7-13 13-7 8-5 5h-2l-2 4-26 26-2-1 4-5h2l2-4 8-8 7-8 9-9 1-2h2v-2l4-3h2l-2-8-4-1-7-8-2-4-3-1-7-8-24-24-3-2v-2h3l7 8 5 4 5 6 13 13 4 2 7 8 11 9 1 1 4-4h2l1-3 8-7 28-28 7-8z" fill="#009468"/>
<path transform="translate(571,1591)" d="m0 0h5l10 10 7 6v2l4 2 13 13v2h2l7 8 7 7 3 2-1 2-8-7-5-3-28-28-8-7-4-3-4 1-13 12-22 22-5 3-6 5-2-2 8-8h2v-2l8-7 10-10 7-8 9-9z" fill="#25C475"/>
<path transform="translate(1361,1027)" d="m0 0 2 1-1 4-4 2-2 4-8 7-24 24h-2l-2 4-10 9-2 3h-3l-1 4-52 52h-3l2-4 55-55h2l2-4 22-22 1-2h2v-2h2l2-4 12-12h2l2-4z" fill="#009368"/>
<path transform="translate(804,1585)" d="m0 0v3l-3 4h-2l-2 4-7 6-2 3h-2l-2 4h-2l-2 4h-2l-2 4h-2l-2 4-15 15-8 7-5 6 4 2 12 11 1 2-4-2-10-9-6-4-3-6-10-9-3-3v-2l-4-2-7-8-14-14-8-7-4-5 4 1 38 38v2l4 2 7 7v2l4-1 7-8 45-45h2v-2z" fill="#009468"/>
<path transform="translate(1246,1142)" d="m0 0h3l-2 4-7 7h-2v2l-4 4h-2l-2 4-29 29-4 3 2 4 8 7 5 4 4 5 21 21v2l4 2 8 8-1 2-12-11-16-17-9-8v-2l-4-2-9-9-3-2v-2h-2l1-3h2l2-4 33-33 7-8h2v-2z" fill="#009368"/>
<path transform="translate(689,1587)" d="m0 0v3l-2 3-2-1-2 4-42 42-8 7-5 6-5 5-4 2-2 4-16 16h-2l-2 4h-2l2-4 35-35 5-6 8-7 39-39h2v-2z" fill="#009368"/>
<path transform="translate(1022,452)" d="m0 0h1l1 19-8 5h-2v2h-2v2l-8 7-5 6h-3l-1 4-4 4-4 1v-3h2l2-5 7-7 6-8 8-7 7-10v-8z" fill="#25C475"/>
<path transform="translate(1191,1310)" d="m0 0h3l-2 4-24 24h-2l-1 4h-2v2l-3 1-7 8-12 11 2 4 3 5-4-2-5-5-1-3h4l1-3 16-16 2-1v-6h4l3-1 2-4 21-21z" fill="#009368"/>
<path transform="translate(1078,971)" d="m0 0h3l-1 4h-2l-2 4-19 19h-2l-2 4h-2l-2 4h-2v2h-2v2h-2l-2 4-4 2v2h-2l-1 3-6 3 2-6 12-11 5-6 7-6 5-6 8-8h2v-2h2v-2l5-3z" fill="#009368"/>
<path transform="translate(633,1537)" d="m0 0 6 4 5 4v2h3v2l3 1 5 6 4 2 1 3 2 1v2h2l4 5v2l4 1 14 14-1 3-5-3-1-2-5-3-7-6-1-4-4-2v-2l-3-1-5-6-4-3v-2l-4-2-12-12z" fill="#19B470"/>
<path transform="translate(1135,914)" d="m0 0 2 1v2h-2l-2 5-8 7-10 10h-3l-2 6-8 7-13 13-4 3h-2v3l-2-1-1-2 21-21 5-4 7-8 16-16z" fill="#009368"/>
<path transform="translate(1243,808)" d="m0 0 1 2-2 3h-2l-2 4-5 5h-2l-2 4h-2l-2 4h-2l-2 4h-2v2l-8 7-11 11-5 2 1-4 32-32 7-6 5-5z" fill="#009368"/>
<path transform="translate(1137,1024)" d="m0 0h2l-1 5-49 49h-2v2h-3l2-5 3-3h2l1-3 8-7 8-8 7-8 11-11h2l1-3 7-6z" fill="#009368"/>
<path transform="translate(939,1561)" d="m0 0 3 1-10 13-7 6-5 5-7 5-4-1-11-12-2-4-4-2-2-5 4 2 3 3v2h2v2l4 2v2l3 1 4 4 4-1 5-2 11-12 6-7z" fill="#1BBD75"/>
<path transform="translate(1190,1198)" d="m0 0h4l-2 4-9 9h-2v2l-7 6-5 6-7 6-17 17-5 2 2-4z" fill="#009368"/>
<path transform="translate(1134,802)" d="m0 0 3 1-4 6-15 14-24 24-3 1-4 6-6 3 2-4 5-6 8-7z" fill="#009368"/>
<path transform="translate(1021,688)" d="m0 0 2 3 1 3-1 2h-2v2l-7 5-1 2h-2v2h-2l-2 4-7 7-6 5-3-1 2-4 4-4h2l2-5 4-5h2l2-4 9-9h2z" fill="#23C275"/>
<path transform="translate(1135,690)" d="m0 0 1 3-36 36h-2l-1 3-6 4-4 5h-2v2h-2v2h-2l2-4 6-7h2v-2l8-7 34-34z" fill="#009368"/>
<path transform="translate(1079,627)" d="m0 0 4 2 3 5 1 3-4-2-3-2-1 5-13 12-21 21-4-1 5-5 8-9h2l2-4 16-15 4-5h3l-3-4z" fill="#009368"/>
<path transform="translate(961,975)" d="m0 0h4v2h-2v2h-2l-2 4-20 20h-2v2h-2v2l-6 5h-2v-3h2l2-5 3-1 2-4 9-9h2l1-3 8-7z" fill="#009368"/>
<path transform="translate(1365,1592)" d="m0 0 4 1 5 5 1 3 4 2 13 13 7 8 12 12 2 1v2l4 2 2 4-4-1-41-41v-2l-4-2-5-5z" fill="#009368"/>
<path transform="translate(976,1637)" d="m0 0h3l-2 4-3 1v2l-5 5h-2l-1 4-8 7-15 15-6 7-8 7-5 4 2-4 6-7 4-4h2v-2h2l2-4 15-16 6-6h2l2-4z" fill="#00966A"/>
<path transform="translate(1591,1592)" d="m0 0 6 4 13 12v2l4 2v2l4 2v2l4 2 7 8 13 13 3 2v2l-5-1-9-10-41-41z" fill="#009368"/>
<path transform="translate(1252,1141)" d="m0 0 4 2 8 7 30 30v2l4 2 8 8v2l-5-2-1-3-3-1-7-8-14-14-4-3v-2l-3-1-5-5v-2l-4-2-8-8z" fill="#009368"/>
<path transform="translate(1534,1536)" d="m0 0 4 1 8 8 8 7 4 4v2l4 2v2l3 1 7 8 15 15-1 3-47-47-5-4z" fill="#009368"/>
<path transform="translate(571,1479)" d="m0 0 1 3-20 20h-2l-2 4-19 19-2-3 42-42z" fill="#009368"/>
<path transform="translate(1083,746)" d="m0 0 4 2 16 15 12 12 6 5 7 8 2 4h2l6 6-4-1-8-7-13-13-3-2v-2l-4-2-20-20z" fill="#009368"/>
<path transform="translate(1078,746)" d="m0 0h2l-1 4-11 11-8 7-10 9-9 9-4 3-2-1 7-8 7-7 8-7 6-6h2l2-4 9-9z" fill="#009368"/>
<path transform="translate(571,1591)" d="m0 0h2l-2 4-45 45-3-2 8-8h2v-2l8-7 10-10 7-8 9-9z" fill="#009368"/>
<path transform="translate(801,1592)" d="m0 0h3l7 8 5 4 5 6 13 13 4 2 7 8 11 9-1 5-2 1-2-6-4-1-7-8-2-4-3-1-7-8-24-24-3-2z" fill="#17B270"/>
<path transform="translate(1653,1638)" d="m0 0 2 2-5 5-14 15h-2v2h-2v2h-2v2h-2l-2 4h-2l-2 4h-2l-2 4-8 8-3-2 36-36h2v-3l5-4z" fill="#009368"/>
<path transform="translate(1478,1592)" d="m0 0 4 1 36 36v2l4 2 8 8 1 4-4-2-4-5-5-5-10-9v-2l-3-1-7-8-14-14-6-5z" fill="#009368"/>
<path transform="translate(1479,1479)" d="m0 0 7 6 16 15v2l3 1 7 8 18 18 1 4-3-1-7-8-41-41-2-1z" fill="#009368"/>
<path transform="translate(1421,1649)" d="m0 0 5 2 8 7 24 24 1 3h2l6 7 4 4-3 1-22-22v-2l-4-2-7-8-10-9z" fill="#009368"/>
<path transform="translate(1020,1030)" d="m0 0h2l-1 4-12 12h-2l-2 4h-2v2h-2v2h-2v2l-8 7-14 14-1-3 24-24 6-7 6-5 5-5z" fill="#009368"/>
<path transform="translate(626,1536)" d="m0 0h2l-2 5-8 7-37 37-3 1-3 5h-2l2-4 7-8 8-7z" fill="#009368"/>
<path transform="translate(1479,1366)" d="m0 0 3 2v2l4 2 44 44-3 1-5-4-6-7-7-6-7-8-11-11-3-2v-2l-4-2-5-6z" fill="#009368"/>
<path transform="translate(1535,1648)" d="m0 0 6 4 9 9 6 5 7 8 20 20 1 4h-2l-5-5-1-3h-2l-7-8-7-6-7-8-12-12-7-6z" fill="#009368"/>
<path transform="translate(1308,1085)" d="m0 0 5 2 46 46 3 2-1 3-10-9-26-26v-2l-4-2-8-8-5-4z" fill="#009368"/>
<path transform="translate(1360,1706)" d="m0 0 2 2-5 6h-2l-2 4-16 16h-2v2l-3 1-1-4 11-11h2v-2h2l2-4 8-8z" fill="#009368"/>
<path transform="translate(1421,1198)" d="m0 0 5 1 6 7 2 1v2h2v2h2v2h2v2h2v2l4 2v2h2v2h2v2h2v2h2v2h2v2h2v2h2v2h2l7 8 2 3-5-2-21-21v-2l-4-2v-2l-4-2v-2l-4-2-12-12z" fill="#009368"/>
<path transform="translate(1309,1536)" d="m0 0 5 2 17 17 6 5 8 10 17 17-1 2-10-9-7-8-10-10-6-3-1-4-12-12-6-5z" fill="#009368"/>
<path transform="translate(1535,1422)" d="m0 0 7 6 41 41-3 1-7-6-5-6-7-6-7-8-7-7-8-7-4-5z" fill="#009368"/>
<path transform="translate(1252,1029)" d="m0 0 5 2 42 42 7 6v2l-4-2-10-9-23-23v-2l-4-2-9-9-4-3z" fill="#009368"/>
<path transform="translate(1195,1649)" d="m0 0 5 2 2 1v2l4 2 28 28v2l3 1 5 6 2 1v3h-2l-5-5-1-3h-2l-6-7-8-7-5-6-5-5-12-11-3-2z" fill="#009368"/>
<path transform="translate(1083,1648)" d="m0 0 4 2 38 38v2l4 2v2h2l2 5-4-2-15-16-27-27-4-3z" fill="#009368"/>
<path transform="translate(1366,1365)" d="m0 0 5 3 16 17 12 13 3 3v2l3 1 7 8 7 7v2l-3-1-4-5-20-20-7-8-7-7v-2l-4-2-3-3-3-4v-2h-2z" fill="#009368"/>
<path transform="translate(1423,1534)" d="m0 0 30 30 7 8 14 13 1 4-4-2-7-8-41-41z" fill="#009368"/>
<path transform="translate(1246,1707)" d="m0 0 3 1-5 5-3 4h-2l-2 4h-2l-2 4-6 7-7 5h-2l1-4 7-8 8-7 2-3h2l1-3 4-4z" fill="#009368"/>
<path transform="translate(1253,1593)" d="m0 0 4 2 42 42 7 6v2l-4-2-10-9-18-18-7-8-6-5v-2l-4-2-4-4z" fill="#009368"/>
<path transform="translate(1071,527)" d="m0 0h3l-2 4-19 19h-2l-2 4h-2v2l-2 2-4-1 6-8 8-7 11-11 4-2z" fill="#009368"/>
<path transform="translate(740,1649)" d="m0 0 1 3-3 1v2l-10 10h-2l-2 4-23 23-2-1 7-8 10-10 7-8 15-15z" fill="#00966A"/>
<path transform="translate(1088,636)" d="m0 0 7 6 19 19v2l4 2v2l4 2v2l3 1v2h2v2h2l3 4-1 2-7-6-4-5-6-5-5-5-1-3-4-2v-2l-3-1-6-7-5-5-3-4z" fill="#009368"/>
<path transform="translate(1308,1649)" d="m0 0 5 2 14 14 6 5 6 7 20 20-1 2-10-9-3-3v-2l-4-2v-2l-4-2v-2l-4-2-5-6-5-5-6-5v-2l-4-2-5-4z" fill="#009368"/>
<path transform="translate(575,1591)" d="m0 0 7 6 6 5 5 5v2l4 2 13 13v2h2l7 8 7 7 3 2-1 2-10-8-7-8-23-23-8-7v-2l-4-2z" fill="#009368"/>
<path transform="translate(1029,805)" d="m0 0 6 4 15 15v2l4 2v2l4 2 21 21h-3l-8-7-27-27v-2l-4-2-4-4v-2l-4-2z" fill="#009368"/>
<path transform="translate(1693,1598)" d="m0 0 3 1-4 6-8 7-18 18-3 1v-3l6-7 7-6 5-6 7-6z" fill="#009368"/>
<path transform="translate(1077,1086)" d="m0 0 1 3h-2l-2 4-8 8-5 4-7 8-3 4h-2v2h-2v2h-2l1-5 9-10 9-8h2l2-5 6-4z" fill="#009368"/>
<path transform="translate(964,1087)" d="m0 0 2 1-2 3h-2l-2 4-3 3h-2l-2 4h-2v2l-7 6-6 7-6 5-7 8h-2v2l-5 3 2-5 10-10 8-7 23-23z" fill="#009368"/>
<path transform="translate(1083,971)" d="m0 0 5 3 44 44 3 2v2l-5-2-1-3-3-1-5-6-8-7v-2l-3-1-7-8-7-7-8-7-5-5z" fill="#009368"/>
<path transform="translate(1083,858)" d="m0 0 3 2v2l4 2 44 44 2 4-4-1-8-10-6-5-6-7-6-5-6-7-6-5-5-5-6-7z" fill="#009368"/>
<path transform="translate(914,1479)" d="m0 0 7 5v2l4 2 14 14 7 6 7 8 2 4h2l6 7 2 1v2l-4-2-16-16v-2l-4-2-7-7-7-8-7-6-5-5z" fill="#009368"/>
<path transform="translate(1028,691)" d="m0 0 4 2 8 7 9 9 7 8 13 13v2l4 2 2 4 4 2-2 1-8-7-11-12-24-24-6-5z" fill="#009368"/>
<path transform="translate(515,1535)" d="m0 0 1 3-35 35-1-3h2v-2h2v-2h2l2-5 23-23z" fill="#009368"/>
<path transform="translate(852,1311)" d="m0 0v3l-7 8h-2l-2 4h-2v2h-2v2h-2v2h-2v2h-2v2h-2v2h-2v2h-2v2h-2l-2 4h-2v2h-2v2h-2l-2 4-6 5v-3l1-2h2v-2h2v-2h2v-2l8-7z" fill="#009368"/>
<path transform="translate(1017,808)" d="m0 0 1 2-15 15-3 4h-2l-2 4h-2l-2 4h-2l-2 4h-2l-2 4-8 8-5 3 2-4 29-29 3-4h2l2-4z" fill="#00976A"/>
<path transform="translate(893,1385)" d="m0 0v3l-3 1-1 3-8 6h-2l-1 3 54 1v1h-64v-1l6-2 8-7 7-6z" fill="#22CB74"/>
<path transform="translate(1647,1649)" d="m0 0 5 2 14 13v2l4 2v2h2v2h2v2h2v2h2l6 7v2h-2v-2l-4-2-12-12-2-4-4-2-9-9-4-3z" fill="#009368"/>
<path transform="translate(1591,1479)" d="m0 0 5 3 12 12 6 5v2h2v2h2v2h2l6 7 4 4v2l-4-1-7-8-28-28z" fill="#009368"/>
<path transform="translate(1576,1376)" d="m0 0h2l-2 5-1 2h-2v2h-2v2h-2v2h-2v2h-2v2h-2v2h-2v2l-6 5-5 1 6-7 8-9h2l2-4h2l2-4 4-1z" fill="#009368"/>
<path transform="translate(1140,1253)" d="m0 0 4 2 11 12 6 5 5 5v2l4 2 5 6 16 16 2 1v2l-5-2-12-13-30-30-6-7z" fill="#009368"/>
<path transform="translate(869,1435)" d="m0 0 5 2 20 20v2l4 2 11 11 2 4-4-1-7-8-29-29-2-1z" fill="#009368"/>
<path transform="translate(807,1484)" d="m0 0 2 1v2l4 2 30 30v2h2l7 8h-3l-3-2v-2h-2v-2h-2l-7-8-6-7-4-3v-2l-4-2v-2l-4-2v-2l-4-2-6-7z" fill="#009368"/>
<path transform="translate(1253,1480)" d="m0 0 4 2 14 14 8 7v2h2l7 8 18 18-1 2-7-6-7-8-33-33-5-4z" fill="#009368"/>
<path transform="translate(620,1430)" d="m0 0 3 1-39 39-3-2 15-14 14-14h2v-2l4-4h2v-2h2z" fill="#009468"/>
<path transform="translate(855,1532)" d="m0 0h2v4l-5 3-5 6-3 3-1 2h-2l-2 4-5 6-3-1 4-7h2l2-4 11-12z" fill="#009368"/>
<path transform="translate(1326,1324)" d="m0 0 5 1 4 6 6 8 8 13-2 2-13-18-6-5v-2h-2z" fill="#009368"/>
<path transform="translate(631,1647)" d="m0 0h2v4l8 7v2l-4-2-6-5-4 2-8 7-24 24-1-2 5-6 8-7 20-20z" fill="#24C574"/>
<path transform="translate(967,1532)" d="m0 0 3 1-6 7-1 2h-2v2l-5 5-1 2h-2l-2 4-5 5-3-1 10-13h2l2-4 7-7z" fill="#009368"/>
<path transform="translate(1135,1367)" d="m0 0 2 1-7 8-16 16-8 7h-3l6-7 12-12 8-7z" fill="#25C475"/>
<path transform="translate(520,1642)" d="m0 0v3l-5 6-5 5-5 6-8 7-8 8v-3l3-4h2v-2h2v-2h2l1-4 12-12 8-7z" fill="#009368"/>
<path transform="translate(1160,1342)" d="m0 0v3l-7 8-12 11 2 4 3 5-4-2-5-5-1-3h4l1-3 16-16z" fill="#24C375"/>
<path transform="translate(1693,1712)" d="m0 0v3l-1 2h-2l-2 4-7 8-4 4h-2v2l-4 2-1-3 4-5 8-7 4-2 2-4h2l1-3z" fill="#009368"/>
<path transform="translate(1102,1103)" d="m0 0 4 2 16 16v2l4 2 7 7 4 5-6-2-7-8-16-16v-2h-2z" fill="#009368"/>
<path transform="translate(1045,594)" d="m0 0 4 2 17 17v2h2l7 8h-3l-12-12-4-3v-2l-4-2v-2l-4-2v-2l-3-1z" fill="#009368"/>
<path transform="translate(1010,1379)" d="m0 0 3 1-7 8-14 13-3-2 16-16z" fill="#25C475"/>
<path transform="translate(1058,1397)" d="m0 0 4 2 3 3-3 1h-72l1-2h69z" fill="#20D173"/>
<path transform="translate(992,768)" d="m0 0 5 2 12 12 2 1v2h2v2l3 1v2l-5-2-10-9-5-5-4-5z" fill="#009469"/>
<path transform="translate(584,1488)" d="m0 0 4 2 37 37h-3l-38-38z" fill="#009368"/>
<path transform="translate(907,1144)" d="m0 0v3l-10 11h-2l-2 4h-2v2h-2v2h-2v2l-8 7-4 2 6-7 18-18 4-5z" fill="#009368"/>
<path transform="translate(614,1551)" d="m0 0v3l-32 32-4 3-2-1 4-4 7-6z" fill="#25C475"/>
<path transform="translate(669,1609)" d="m0 0v3l-34 34-3-1 4-4h2l1-3 8-7z" fill="#23C974"/>
<path transform="translate(939,1561)" d="m0 0 3 1-10 13-3 2-4-2 11-12z" fill="#22C275"/>
<path transform="translate(801,1592)" d="m0 0h3l7 8 5 4 5 6 14 14-1 2-30-30-3-2z" fill="#009468"/>
<path transform="translate(1103,1330)" d="m0 0 4 2 28 28h-3l-5-5-8-7v-2l-4-2-12-12z" fill="#25C475"/>
<path transform="translate(1219,1107)" d="m0 0 4 2 17 17v2h2l4 6 3 1 1 3-5-2-5-6-5-5-15-16z" fill="#009368"/>
<path transform="translate(542,1558)" d="m0 0 3 1v2l4 2 5 5v2h2l14 16 2 2-4-1-7-8-9-9-6-5-4-5z" fill="#009368"/>
<path transform="translate(1121,1719)" d="m0 0 2 1-3 3-2 5-7 7-4 1-1-2 5-6h2l2-4z" fill="#009368"/>
<path transform="translate(986,987)" d="m0 0 4 2 25 25v2h2v2l-4-2-5-6-7-6v-2l-4-2-7-8z" fill="#009368"/>
<path transform="translate(992,881)" d="m0 0 6 4 10 10 8 7 4 5h-3l-12-12-8-7-5-5z" fill="#009368"/>
<path transform="translate(556,1570)" d="m0 0 7 6 8 8 7-1-5 8-4 3-2-1 2-4v-3l-7-8-6-6z" fill="#25C475"/>
<path transform="translate(1008,1571)" d="m0 0 4 3v2h2l7 8 2 2-1 7-3 1 1-5-10-13-1-3-2-1z" fill="#19BB76"/>
<path transform="translate(1283,880)" d="m0 0 2 1-3 4h-2l-2 4-9 8-3-2h2v-2h2l2-4h2l2-4z" fill="#009368"/>
<path transform="translate(1475,1705)" d="m0 0 1 2-5 5-6 7-4 1h-3l2-3h2l2-4 7-6z" fill="#009368"/>
<path transform="translate(1456,1721)" d="m0 0h2l-2 7-9 8-2-1 1-4 8-8h2z" fill="#009468"/>
<path transform="translate(851,1086)" d="m0 0 1 2-8 14-3 3-2-2 2-5 6-8z" fill="#25C475"/>
<path transform="translate(1157,1384)" d="m0 0h3l7 8 10 8 10 2v1h-12l-18-18z" fill="#23C974"/>
<path transform="translate(555,1233)" d="m0 0 4 1v2l4 2 4 3 1 5-4-1-5-5-4-5z" fill="#25C475"/>
<path transform="translate(1451,1164)" d="m0 0 2 1-9 10-3 3-3-1v-2h2l2-4 4-4h2v-2z" fill="#009368"/>
<path transform="translate(931,1383)" d="m0 0 5 3 5 4 7 8 5 4-7 1 2-1-15-15v-2h-2z" fill="#24C474"/>
<path transform="translate(725,952)" d="m0 0 5 2 7 6-1 4-7-4-4-6z" fill="#25C475"/>
<path transform="translate(620,1769)" d="m0 0v3l-1 2h-2l-2 4-15 15v-3l2-3h2v-2h2v-2h2l2-4z" fill="#009368"/>
<path transform="translate(1618,1449)" d="m0 0v3l-3 1-2 4-7 7-4-1 6-7 6-5z" fill="#009368"/>
<path transform="translate(1201,1087)" d="m0 0 5 2 1 3h2l8 10 3 4h-3l-5-6-5-5-6-7z" fill="#009368"/>
<path transform="translate(788,1577)" d="m0 0 4 2 5 6 8-2-2 4-4 2v2h-2l-3-5-2-2v-2z" fill="#28C878"/>
<path transform="translate(989,836)" d="m0 0 1 3-4 2-2 4-8 8-5 3 2-4 5-5z" fill="#01AA77"/>
<path transform="translate(1152,1010)" d="m0 0 1 2-1 7-4-1-7 6h-2l2-4 3-1v-3z" fill="#009368"/>
<path transform="translate(717,1394)" d="m0 0 7 6 7 8 5 5 3 4-4-2-12-12v-2h-2v-2h-2z" fill="#009368"/>
<path transform="translate(1498,1230)" d="m0 0 2 1-5 6-8 7h-3v-3l6-5z" fill="#009368"/>
<path transform="translate(925,1576)" d="m0 0 4 1-7 8-9 6-1-2 6-5z" fill="#0DB276"/>
<path transform="translate(1587,1704)" d="m0 0 2 1-2 5-8 7-4-1 9-9z" fill="#009368"/>
<path transform="translate(1135,1706)" d="m0 0 2 2-10 10-4 1 2-4 6-7z" fill="#009368"/>
<path transform="translate(1568,1723)" d="m0 0 2 1-1 4-6 6h-3l-1 2-1-2 1-2h2l2-4z" fill="#009469"/>
<path transform="translate(1019,804)" d="m0 0 2 1v1h3v2l-5 3-2 1v-3l-6 6-2-1 7-8z" fill="#24C274"/>
<path transform="translate(1135,1367)" d="m0 0 2 1-7 8-7 7h-2l2-4z" fill="#24C375"/>
<path transform="translate(976,1637)" d="m0 0h3l-2 4-3 1v2l-5 5h-3l2-4z" fill="#009C6E"/>
<path transform="translate(685,1592)" d="m0 0 4 2 9 8v2l-4-2-6-6-4 1-4 4-2-1z" fill="#25C475"/>
<path transform="translate(1041,1380)" d="m0 0 8 6 7 7 2 4-4-2-13-13z" fill="#25C475"/>
<path transform="translate(741,1649)" d="m0 0 4 2 9 7 1 3-4-2-8-6-5 2v-2l2-1z" fill="#25C475"/>
<path transform="translate(997,714)" d="m0 0 4 1-1 3-6 5-3-1 2-4z" fill="#02AB76"/>
<path transform="translate(859,742)" d="m0 0h5l-1 5-2 3v-2h-6v-3l3-1z" fill="#25C475"/>
<path transform="translate(1596,1468)" d="m0 0 3 1-2 4-5 3-1 3h-2v-2l-2-1h3l2-4z" fill="#009368"/>
<path transform="translate(698,1376)" d="m0 0 8 6 11 11h-3l-9-9-7-6z" fill="#009368"/>
<path transform="translate(1310,973)" d="m0 0 4 2 8 8 2 1v3h-2v-2h-2v-2h-2v-2l-4-2-4-4z" fill="#009368"/>
<path transform="translate(1333,943)" d="m0 0v3l-2 3h-2l-2 4-3 2v-4l7-7z" fill="#009368"/>
<path transform="translate(644,1517)" d="m0 0 2 2-12 12v-3l7-8z" fill="#01AA77"/>
<path transform="translate(1400,1515)" d="m0 0 4 1 13 13h-3l-8-8-6-5z" fill="#009368"/>
<path transform="translate(637,1425)" d="m0 0 5 4 4 7-4-2-5-4-2-4z" fill="#14B372"/>
<path transform="translate(1258,903)" d="m0 0h3l-2 5-5 3-3-1 4-5z" fill="#009368"/>
<path transform="translate(1016,791)" d="m0 0h8l-1 7h-3l-3-5z" fill="#25C475"/>
<path transform="translate(519,1535)" d="m0 0 7 6 7 7-2 1-6-5-5-5z" fill="#00966A"/>
<path transform="translate(1133,1256)" d="m0 0h2l-1 4-6 5-1-4z" fill="#009368"/>
<path transform="translate(821,1230)" d="m0 0 2 1-12 12-1-2 5-6z" fill="#009368"/>
<path transform="translate(589,1576)" d="m0 0 2 1-9 9-4 3-2-1 4-4 7-6z" fill="#23CA74"/>
<path transform="translate(1478,1255)" d="m0 0 4 1 4 3v2h2v2h2v2l-4-1-5-5z" fill="#009368"/>
<path transform="translate(1112,1389)" d="m0 0 2 1-7 8-3 2v-3z" fill="#17B572"/>
<path transform="translate(693,1580)" d="m0 0 2 1-7 8h-2l-1 2v-3l4-5z" fill="#26C676"/>
<path transform="translate(1484,1356)" d="m0 0 2 2-5 5-3 2-3-1h2l1-3z" fill="#009569"/>
<path transform="translate(1143,1696)" d="m0 0 1 4-4 5 1 2-3-1v-5h2l2-4z" fill="#009368"/>
<path transform="translate(788,1577)" d="m0 0 4 2 6 8v2l-3-1-3-4v-2z" fill="#1EBC73"/>
<path transform="translate(1031,679)" d="m0 0h2l-1 5-4 4h-2v-3h2l1-4z" fill="#009368"/>
<path transform="translate(1371,1693)" d="m0 0 2 4-7 5-1-2z" fill="#009368"/>
<path transform="translate(1353,1351)" d="m0 0h2l7 8v3l-6-5-3-4z" fill="#009368"/>
<path transform="translate(1561,205)" d="m0 0" fill="#D4D4D4"/>
<path transform="translate(1509,153)" d="m0 0" fill="#D4D4D4"/>
<path transform="translate(1505,149)" d="m0 0" fill="#D4D4D4"/>
<path transform="translate(1501,145)" d="m0 0" fill="#D4D4D4"/>
</svg>
