<?xml version="1.0" encoding="iso-8859-1"?>
<svg xmlns="http://www.w3.org/2000/svg" width="512.000000pt" height="512.000000pt" viewBox="0 0 512.000000 512.000000"
    preserveAspectRatio="xMidYMid meet">
    <metadata>
        Created by potrace 1.16, written by Peter Selinger 2001-2019
    </metadata>
    <g transform="translate(0.000000,512.000000) scale(0.100000,-0.100000)" fill="#9f9f9c" stroke="none">
        <path d="M2226 5104 c-519 -67 -1016 -299 -1403 -656 -456 -421 -747 -994
-812 -1600 -14 -125 -14 -451 0 -576 118 -1090 949 -2004 2021 -2223 333 -67
747 -67 1067 2 607 131 1142 475 1516 974 269 359 435 770 490 1215 20 162 20
477 0 640 -44 358 -168 713 -353 1014 -412 671 -1098 1115 -1872 1211 -155 19
-502 18 -654 -1z m695 -378 c460 -78 857 -284 1189 -616 344 -344 552 -758
626 -1250 24 -156 24 -444 0 -600 -71 -472 -268 -876 -596 -1224 -212 -225
-557 -446 -856 -549 -405 -140 -832 -161 -1243 -61 -300 74 -607 224 -849 418
-375 299 -652 732 -766 1197 -83 340 -83 698 0 1038 96 391 293 740 584 1031
379 379 844 593 1400 644 110 10 371 -4 511 -28z" />
        <path d="M2347 3835 c-100 -19 -208 -61 -280 -109 -262 -174 -277 -503 -24
-523 82 -7 114 10 166 86 82 120 165 165 306 164 95 0 144 -12 207 -52 116
-73 123 -226 17 -354 -17 -21 -87 -83 -155 -138 -222 -179 -287 -305 -288
-559 -1 -190 26 -230 164 -238 92 -5 155 11 190 48 24 26 27 39 37 157 15 187
38 228 217 377 231 192 345 390 346 596 0 251 -182 455 -475 531 -107 27 -319
34 -428 14z" />
        <path d="M2433 1879 c-59 -11 -93 -31 -140 -82 -49 -53 -67 -103 -67 -182 1
-71 19 -117 65 -170 132 -150 389 -92 445 101 55 192 -108 371 -303 333z" />
    </g>
</svg>